# xmcd CD database file
#
# Track frame offsets:
#	150
#	16497
#	36969
#	58075
#	77950
#	95342
#	112858
#	134571
#	154458
#	177649
#	194561
#	214315
#
# Disc length: 3138 seconds
#
# Revision: 0
# Processed by: cddbd v1.5.2PL0 Copyright (c) Steve Scherf et al.
# Submitted via: CDex 1.70beta2
#
DISCID=b30c400c
DTITLE=Chris Rhodes - Foot Notes
DYEAR=2002
DGENRE=Jazz
TTITLE0=Straighten Up And Fly Right
TTITLE1=The Thrill Is Gone
TTITLE2=On Green Dolphin Street
TTITLE3=Lady Wants To Know
TTITLE4=Is You Is Or Is You Ain't (My Baby)
TTITLE5=The In Crowd
TTITLE6=Angel Eyes
TTITLE7=One Bad Habit
TTITLE8=I'm Gonna Move to the Outskirts of Town
TTITLE9=Born Under A Bad Sign
TTITLE10=Do Nothin' Til You Hear From Me
TTITLE11=Wedding Bells
EXTD=YEAR: 2002
EXTT0=
EXTT1=
EXTT2=
EXTT3=
EXTT4=
EXTT5=
EXTT6=
EXTT7=
EXTT8=
EXTT9=
EXTT10=
EXTT11=
PLAYORDER=
